<mxfile host="app.diagrams.net" modified="2023-11-22T18:32:06.077Z" agent="Mozilla/5.0 (X11; Linux x86_64) AppleWebKit/537.36 (KHTML, like Gecko) Chrome/119.0.0.0 Safari/537.36" etag="vuKALNZxkvkYM1Op4i6d" version="22.1.3" type="github">
  <diagram name="Page-1" id="JHPvHFSDBeC89apfdETL">
    <mxGraphModel dx="989" dy="523" grid="1" gridSize="10" guides="1" tooltips="1" connect="1" arrows="1" fold="1" page="1" pageScale="1" pageWidth="827" pageHeight="1169" math="0" shadow="0">
      <root>
        <mxCell id="0" />
        <mxCell id="1" parent="0" />
        <mxCell id="hbgop2AEXUlkO1LDF3io-1" value="1" style="ellipse;whiteSpace=wrap;html=1;aspect=fixed;fillColor=#d5e8d4;strokeColor=#82b366;" vertex="1" parent="1">
          <mxGeometry x="190" y="20" width="40" height="40" as="geometry" />
        </mxCell>
        <mxCell id="hbgop2AEXUlkO1LDF3io-2" value="" style="endArrow=none;html=1;rounded=0;" edge="1" parent="1">
          <mxGeometry width="50" height="50" relative="1" as="geometry">
            <mxPoint x="380" y="70" as="sourcePoint" />
            <mxPoint x="380" y="10" as="targetPoint" />
            <Array as="points">
              <mxPoint x="400" y="70" />
              <mxPoint x="400" y="10" />
            </Array>
          </mxGeometry>
        </mxCell>
        <mxCell id="hbgop2AEXUlkO1LDF3io-3" value="4" style="ellipse;whiteSpace=wrap;html=1;aspect=fixed;fillColor=#f8cecc;strokeColor=#b85450;" vertex="1" parent="1">
          <mxGeometry x="550" y="20" width="40" height="40" as="geometry" />
        </mxCell>
        <mxCell id="hbgop2AEXUlkO1LDF3io-4" value="6" style="ellipse;whiteSpace=wrap;html=1;aspect=fixed;" vertex="1" parent="1">
          <mxGeometry x="630" y="20" width="40" height="40" as="geometry" />
        </mxCell>
        <mxCell id="hbgop2AEXUlkO1LDF3io-5" value="" style="endArrow=none;html=1;rounded=0;" edge="1" parent="1">
          <mxGeometry width="50" height="50" relative="1" as="geometry">
            <mxPoint x="660" y="70" as="sourcePoint" />
            <mxPoint x="660" y="10" as="targetPoint" />
            <Array as="points">
              <mxPoint x="680" y="70" />
              <mxPoint x="680" y="10" />
            </Array>
          </mxGeometry>
        </mxCell>
        <mxCell id="hbgop2AEXUlkO1LDF3io-6" value="" style="endArrow=none;html=1;rounded=0;" edge="1" parent="1">
          <mxGeometry width="50" height="50" relative="1" as="geometry">
            <mxPoint x="560" y="70" as="sourcePoint" />
            <mxPoint x="560" y="10" as="targetPoint" />
            <Array as="points">
              <mxPoint x="540" y="70" />
              <mxPoint x="540" y="10" />
            </Array>
          </mxGeometry>
        </mxCell>
        <mxCell id="hbgop2AEXUlkO1LDF3io-7" value="6" style="ellipse;whiteSpace=wrap;html=1;aspect=fixed;" vertex="1" parent="1">
          <mxGeometry x="270" y="20" width="40" height="40" as="geometry" />
        </mxCell>
        <mxCell id="hbgop2AEXUlkO1LDF3io-8" value="7" style="ellipse;whiteSpace=wrap;html=1;aspect=fixed;" vertex="1" parent="1">
          <mxGeometry x="350" y="20" width="40" height="40" as="geometry" />
        </mxCell>
        <mxCell id="hbgop2AEXUlkO1LDF3io-9" value="" style="endArrow=none;html=1;rounded=0;" edge="1" parent="1">
          <mxGeometry width="50" height="50" relative="1" as="geometry">
            <mxPoint x="200" y="70" as="sourcePoint" />
            <mxPoint x="200" y="10" as="targetPoint" />
            <Array as="points">
              <mxPoint x="180" y="70" />
              <mxPoint x="180" y="10" />
            </Array>
          </mxGeometry>
        </mxCell>
        <mxCell id="hbgop2AEXUlkO1LDF3io-10" value="First&amp;nbsp;subarray" style="text;html=1;strokeColor=none;fillColor=none;align=center;verticalAlign=middle;whiteSpace=wrap;rounded=0;" vertex="1" parent="1">
          <mxGeometry x="80" y="25" width="80" height="30" as="geometry" />
        </mxCell>
        <mxCell id="hbgop2AEXUlkO1LDF3io-11" value="Second&amp;nbsp;subarray" style="text;html=1;strokeColor=none;fillColor=none;align=center;verticalAlign=middle;whiteSpace=wrap;rounded=0;" vertex="1" parent="1">
          <mxGeometry x="440" y="25" width="100" height="30" as="geometry" />
        </mxCell>
        <mxCell id="hbgop2AEXUlkO1LDF3io-14" value="" style="endArrow=none;html=1;rounded=0;" edge="1" parent="1">
          <mxGeometry width="50" height="50" relative="1" as="geometry">
            <mxPoint x="220" y="150" as="sourcePoint" />
            <mxPoint x="220" y="90" as="targetPoint" />
            <Array as="points">
              <mxPoint x="240" y="150" />
              <mxPoint x="240" y="90" />
            </Array>
          </mxGeometry>
        </mxCell>
        <mxCell id="hbgop2AEXUlkO1LDF3io-15" value="" style="endArrow=none;html=1;rounded=0;" edge="1" parent="1">
          <mxGeometry width="50" height="50" relative="1" as="geometry">
            <mxPoint x="200" y="150" as="sourcePoint" />
            <mxPoint x="200" y="90" as="targetPoint" />
            <Array as="points">
              <mxPoint x="180" y="150" />
              <mxPoint x="180" y="90" />
            </Array>
          </mxGeometry>
        </mxCell>
        <mxCell id="hbgop2AEXUlkO1LDF3io-16" value="Result array" style="text;html=1;strokeColor=none;fillColor=none;align=center;verticalAlign=middle;whiteSpace=wrap;rounded=0;" vertex="1" parent="1">
          <mxGeometry x="80" y="105" width="70" height="30" as="geometry" />
        </mxCell>
        <mxCell id="hbgop2AEXUlkO1LDF3io-32" value="" style="endArrow=none;html=1;rounded=0;" edge="1" parent="1">
          <mxGeometry width="50" height="50" relative="1" as="geometry">
            <mxPoint x="300" y="250" as="sourcePoint" />
            <mxPoint x="300" y="190" as="targetPoint" />
            <Array as="points">
              <mxPoint x="320" y="250" />
              <mxPoint x="320" y="190" />
            </Array>
          </mxGeometry>
        </mxCell>
        <mxCell id="hbgop2AEXUlkO1LDF3io-33" value="4" style="ellipse;whiteSpace=wrap;html=1;aspect=fixed;fillColor=#d5e8d4;strokeColor=#82b366;" vertex="1" parent="1">
          <mxGeometry x="470" y="200" width="40" height="40" as="geometry" />
        </mxCell>
        <mxCell id="hbgop2AEXUlkO1LDF3io-34" value="6" style="ellipse;whiteSpace=wrap;html=1;aspect=fixed;" vertex="1" parent="1">
          <mxGeometry x="550" y="200" width="40" height="40" as="geometry" />
        </mxCell>
        <mxCell id="hbgop2AEXUlkO1LDF3io-35" value="" style="endArrow=none;html=1;rounded=0;" edge="1" parent="1">
          <mxGeometry width="50" height="50" relative="1" as="geometry">
            <mxPoint x="580" y="250" as="sourcePoint" />
            <mxPoint x="580" y="190" as="targetPoint" />
            <Array as="points">
              <mxPoint x="600" y="250" />
              <mxPoint x="600" y="190" />
            </Array>
          </mxGeometry>
        </mxCell>
        <mxCell id="hbgop2AEXUlkO1LDF3io-36" value="" style="endArrow=none;html=1;rounded=0;" edge="1" parent="1">
          <mxGeometry width="50" height="50" relative="1" as="geometry">
            <mxPoint x="480" y="250" as="sourcePoint" />
            <mxPoint x="480" y="190" as="targetPoint" />
            <Array as="points">
              <mxPoint x="460" y="250" />
              <mxPoint x="460" y="190" />
            </Array>
          </mxGeometry>
        </mxCell>
        <mxCell id="hbgop2AEXUlkO1LDF3io-37" value="6" style="ellipse;whiteSpace=wrap;html=1;aspect=fixed;fillColor=#f8cecc;strokeColor=#b85450;" vertex="1" parent="1">
          <mxGeometry x="190" y="200" width="40" height="40" as="geometry" />
        </mxCell>
        <mxCell id="hbgop2AEXUlkO1LDF3io-38" value="7" style="ellipse;whiteSpace=wrap;html=1;aspect=fixed;" vertex="1" parent="1">
          <mxGeometry x="270" y="200" width="40" height="40" as="geometry" />
        </mxCell>
        <mxCell id="hbgop2AEXUlkO1LDF3io-39" value="" style="endArrow=none;html=1;rounded=0;" edge="1" parent="1">
          <mxGeometry width="50" height="50" relative="1" as="geometry">
            <mxPoint x="200" y="250" as="sourcePoint" />
            <mxPoint x="200" y="190" as="targetPoint" />
            <Array as="points">
              <mxPoint x="180" y="250" />
              <mxPoint x="180" y="190" />
            </Array>
          </mxGeometry>
        </mxCell>
        <mxCell id="hbgop2AEXUlkO1LDF3io-40" value="First&amp;nbsp;subarray" style="text;html=1;strokeColor=none;fillColor=none;align=center;verticalAlign=middle;whiteSpace=wrap;rounded=0;" vertex="1" parent="1">
          <mxGeometry x="80" y="205" width="80" height="30" as="geometry" />
        </mxCell>
        <mxCell id="hbgop2AEXUlkO1LDF3io-41" value="Second&amp;nbsp;subarray" style="text;html=1;strokeColor=none;fillColor=none;align=center;verticalAlign=middle;whiteSpace=wrap;rounded=0;" vertex="1" parent="1">
          <mxGeometry x="360" y="205" width="100" height="30" as="geometry" />
        </mxCell>
        <mxCell id="hbgop2AEXUlkO1LDF3io-42" value="" style="endArrow=none;html=1;rounded=0;" edge="1" parent="1">
          <mxGeometry width="50" height="50" relative="1" as="geometry">
            <mxPoint x="220" y="330" as="sourcePoint" />
            <mxPoint x="220" y="270" as="targetPoint" />
            <Array as="points">
              <mxPoint x="240" y="330" />
              <mxPoint x="240" y="270" />
            </Array>
          </mxGeometry>
        </mxCell>
        <mxCell id="hbgop2AEXUlkO1LDF3io-43" value="" style="endArrow=none;html=1;rounded=0;" edge="1" parent="1">
          <mxGeometry width="50" height="50" relative="1" as="geometry">
            <mxPoint x="200" y="330" as="sourcePoint" />
            <mxPoint x="200" y="270" as="targetPoint" />
            <Array as="points">
              <mxPoint x="180" y="330" />
              <mxPoint x="180" y="270" />
            </Array>
          </mxGeometry>
        </mxCell>
        <mxCell id="hbgop2AEXUlkO1LDF3io-44" value="Result array" style="text;html=1;strokeColor=none;fillColor=none;align=center;verticalAlign=middle;whiteSpace=wrap;rounded=0;" vertex="1" parent="1">
          <mxGeometry x="80" y="285" width="70" height="30" as="geometry" />
        </mxCell>
        <mxCell id="hbgop2AEXUlkO1LDF3io-45" value="1" style="ellipse;whiteSpace=wrap;html=1;aspect=fixed;fillColor=#e1d5e7;strokeColor=#9673a6;" vertex="1" parent="1">
          <mxGeometry x="190" y="280" width="40" height="40" as="geometry" />
        </mxCell>
        <mxCell id="hbgop2AEXUlkO1LDF3io-46" value="" style="endArrow=none;html=1;rounded=0;" edge="1" parent="1">
          <mxGeometry width="50" height="50" relative="1" as="geometry">
            <mxPoint x="300" y="430" as="sourcePoint" />
            <mxPoint x="300" y="370" as="targetPoint" />
            <Array as="points">
              <mxPoint x="320" y="430" />
              <mxPoint x="320" y="370" />
            </Array>
          </mxGeometry>
        </mxCell>
        <mxCell id="hbgop2AEXUlkO1LDF3io-47" value="4" style="ellipse;whiteSpace=wrap;html=1;aspect=fixed;fillColor=#e1d5e7;strokeColor=#9673a6;" vertex="1" parent="1">
          <mxGeometry x="270" y="460" width="40" height="40" as="geometry" />
        </mxCell>
        <mxCell id="hbgop2AEXUlkO1LDF3io-48" value="6" style="ellipse;whiteSpace=wrap;html=1;aspect=fixed;fillColor=#d5e8d4;strokeColor=#82b366;" vertex="1" parent="1">
          <mxGeometry x="470" y="380" width="40" height="40" as="geometry" />
        </mxCell>
        <mxCell id="hbgop2AEXUlkO1LDF3io-49" value="" style="endArrow=none;html=1;rounded=0;" edge="1" parent="1">
          <mxGeometry width="50" height="50" relative="1" as="geometry">
            <mxPoint x="500" y="430" as="sourcePoint" />
            <mxPoint x="500" y="370" as="targetPoint" />
            <Array as="points">
              <mxPoint x="520" y="430" />
              <mxPoint x="520" y="370" />
            </Array>
          </mxGeometry>
        </mxCell>
        <mxCell id="hbgop2AEXUlkO1LDF3io-50" value="" style="endArrow=none;html=1;rounded=0;" edge="1" parent="1">
          <mxGeometry width="50" height="50" relative="1" as="geometry">
            <mxPoint x="480" y="430" as="sourcePoint" />
            <mxPoint x="480" y="370" as="targetPoint" />
            <Array as="points">
              <mxPoint x="460" y="430" />
              <mxPoint x="460" y="370" />
            </Array>
          </mxGeometry>
        </mxCell>
        <mxCell id="hbgop2AEXUlkO1LDF3io-51" value="6" style="ellipse;whiteSpace=wrap;html=1;aspect=fixed;fillColor=#d5e8d4;strokeColor=#82b366;" vertex="1" parent="1">
          <mxGeometry x="190" y="380" width="40" height="40" as="geometry" />
        </mxCell>
        <mxCell id="hbgop2AEXUlkO1LDF3io-52" value="7" style="ellipse;whiteSpace=wrap;html=1;aspect=fixed;" vertex="1" parent="1">
          <mxGeometry x="270" y="380" width="40" height="40" as="geometry" />
        </mxCell>
        <mxCell id="hbgop2AEXUlkO1LDF3io-53" value="" style="endArrow=none;html=1;rounded=0;" edge="1" parent="1">
          <mxGeometry width="50" height="50" relative="1" as="geometry">
            <mxPoint x="200" y="430" as="sourcePoint" />
            <mxPoint x="200" y="370" as="targetPoint" />
            <Array as="points">
              <mxPoint x="180" y="430" />
              <mxPoint x="180" y="370" />
            </Array>
          </mxGeometry>
        </mxCell>
        <mxCell id="hbgop2AEXUlkO1LDF3io-54" value="First&amp;nbsp;subarray" style="text;html=1;strokeColor=none;fillColor=none;align=center;verticalAlign=middle;whiteSpace=wrap;rounded=0;" vertex="1" parent="1">
          <mxGeometry x="80" y="385" width="80" height="30" as="geometry" />
        </mxCell>
        <mxCell id="hbgop2AEXUlkO1LDF3io-55" value="Second&amp;nbsp;subarray" style="text;html=1;strokeColor=none;fillColor=none;align=center;verticalAlign=middle;whiteSpace=wrap;rounded=0;" vertex="1" parent="1">
          <mxGeometry x="360" y="385" width="100" height="30" as="geometry" />
        </mxCell>
        <mxCell id="hbgop2AEXUlkO1LDF3io-56" value="" style="endArrow=none;html=1;rounded=0;" edge="1" parent="1">
          <mxGeometry width="50" height="50" relative="1" as="geometry">
            <mxPoint x="300" y="510" as="sourcePoint" />
            <mxPoint x="300" y="450" as="targetPoint" />
            <Array as="points">
              <mxPoint x="320" y="510" />
              <mxPoint x="320" y="450" />
            </Array>
          </mxGeometry>
        </mxCell>
        <mxCell id="hbgop2AEXUlkO1LDF3io-57" value="" style="endArrow=none;html=1;rounded=0;" edge="1" parent="1">
          <mxGeometry width="50" height="50" relative="1" as="geometry">
            <mxPoint x="200" y="510" as="sourcePoint" />
            <mxPoint x="200" y="450" as="targetPoint" />
            <Array as="points">
              <mxPoint x="180" y="510" />
              <mxPoint x="180" y="450" />
            </Array>
          </mxGeometry>
        </mxCell>
        <mxCell id="hbgop2AEXUlkO1LDF3io-58" value="Result array" style="text;html=1;strokeColor=none;fillColor=none;align=center;verticalAlign=middle;whiteSpace=wrap;rounded=0;" vertex="1" parent="1">
          <mxGeometry x="80" y="465" width="70" height="30" as="geometry" />
        </mxCell>
        <mxCell id="hbgop2AEXUlkO1LDF3io-59" value="1" style="ellipse;whiteSpace=wrap;html=1;aspect=fixed;" vertex="1" parent="1">
          <mxGeometry x="190" y="460" width="40" height="40" as="geometry" />
        </mxCell>
        <mxCell id="hbgop2AEXUlkO1LDF3io-60" value="" style="endArrow=none;html=1;rounded=0;" edge="1" parent="1">
          <mxGeometry width="50" height="50" relative="1" as="geometry">
            <mxPoint x="220" y="610" as="sourcePoint" />
            <mxPoint x="220" y="550" as="targetPoint" />
            <Array as="points">
              <mxPoint x="240" y="610" />
              <mxPoint x="240" y="550" />
            </Array>
          </mxGeometry>
        </mxCell>
        <mxCell id="hbgop2AEXUlkO1LDF3io-61" value="4" style="ellipse;whiteSpace=wrap;html=1;aspect=fixed;" vertex="1" parent="1">
          <mxGeometry x="270" y="640" width="40" height="40" as="geometry" />
        </mxCell>
        <mxCell id="hbgop2AEXUlkO1LDF3io-62" value="6" style="ellipse;whiteSpace=wrap;html=1;aspect=fixed;fillColor=#d5e8d4;strokeColor=#82b366;" vertex="1" parent="1">
          <mxGeometry x="390" y="560" width="40" height="40" as="geometry" />
        </mxCell>
        <mxCell id="hbgop2AEXUlkO1LDF3io-63" value="" style="endArrow=none;html=1;rounded=0;" edge="1" parent="1">
          <mxGeometry width="50" height="50" relative="1" as="geometry">
            <mxPoint x="420" y="610" as="sourcePoint" />
            <mxPoint x="420" y="550" as="targetPoint" />
            <Array as="points">
              <mxPoint x="440" y="610" />
              <mxPoint x="440" y="550" />
            </Array>
          </mxGeometry>
        </mxCell>
        <mxCell id="hbgop2AEXUlkO1LDF3io-64" value="" style="endArrow=none;html=1;rounded=0;" edge="1" parent="1">
          <mxGeometry width="50" height="50" relative="1" as="geometry">
            <mxPoint x="400" y="610" as="sourcePoint" />
            <mxPoint x="400" y="550" as="targetPoint" />
            <Array as="points">
              <mxPoint x="380" y="610" />
              <mxPoint x="380" y="550" />
            </Array>
          </mxGeometry>
        </mxCell>
        <mxCell id="hbgop2AEXUlkO1LDF3io-65" value="6" style="ellipse;whiteSpace=wrap;html=1;aspect=fixed;fillColor=#e1d5e7;strokeColor=#9673a6;" vertex="1" parent="1">
          <mxGeometry x="350" y="640" width="40" height="40" as="geometry" />
        </mxCell>
        <mxCell id="hbgop2AEXUlkO1LDF3io-66" value="7" style="ellipse;whiteSpace=wrap;html=1;aspect=fixed;fillColor=#f8cecc;strokeColor=#b85450;" vertex="1" parent="1">
          <mxGeometry x="190" y="560" width="40" height="40" as="geometry" />
        </mxCell>
        <mxCell id="hbgop2AEXUlkO1LDF3io-67" value="" style="endArrow=none;html=1;rounded=0;" edge="1" parent="1">
          <mxGeometry width="50" height="50" relative="1" as="geometry">
            <mxPoint x="200" y="610" as="sourcePoint" />
            <mxPoint x="200" y="550" as="targetPoint" />
            <Array as="points">
              <mxPoint x="180" y="610" />
              <mxPoint x="180" y="550" />
            </Array>
          </mxGeometry>
        </mxCell>
        <mxCell id="hbgop2AEXUlkO1LDF3io-68" value="First&amp;nbsp;subarray" style="text;html=1;strokeColor=none;fillColor=none;align=center;verticalAlign=middle;whiteSpace=wrap;rounded=0;" vertex="1" parent="1">
          <mxGeometry x="80" y="565" width="80" height="30" as="geometry" />
        </mxCell>
        <mxCell id="hbgop2AEXUlkO1LDF3io-69" value="Second&amp;nbsp;subarray" style="text;html=1;strokeColor=none;fillColor=none;align=center;verticalAlign=middle;whiteSpace=wrap;rounded=0;" vertex="1" parent="1">
          <mxGeometry x="280" y="565" width="100" height="30" as="geometry" />
        </mxCell>
        <mxCell id="hbgop2AEXUlkO1LDF3io-70" value="" style="endArrow=none;html=1;rounded=0;" edge="1" parent="1">
          <mxGeometry width="50" height="50" relative="1" as="geometry">
            <mxPoint x="380" y="690" as="sourcePoint" />
            <mxPoint x="380" y="630" as="targetPoint" />
            <Array as="points">
              <mxPoint x="400" y="690" />
              <mxPoint x="400" y="630" />
            </Array>
          </mxGeometry>
        </mxCell>
        <mxCell id="hbgop2AEXUlkO1LDF3io-71" value="" style="endArrow=none;html=1;rounded=0;" edge="1" parent="1">
          <mxGeometry width="50" height="50" relative="1" as="geometry">
            <mxPoint x="200" y="690" as="sourcePoint" />
            <mxPoint x="200" y="630" as="targetPoint" />
            <Array as="points">
              <mxPoint x="180" y="690" />
              <mxPoint x="180" y="630" />
            </Array>
          </mxGeometry>
        </mxCell>
        <mxCell id="hbgop2AEXUlkO1LDF3io-72" value="Result array" style="text;html=1;strokeColor=none;fillColor=none;align=center;verticalAlign=middle;whiteSpace=wrap;rounded=0;" vertex="1" parent="1">
          <mxGeometry x="80" y="645" width="70" height="30" as="geometry" />
        </mxCell>
        <mxCell id="hbgop2AEXUlkO1LDF3io-73" value="1" style="ellipse;whiteSpace=wrap;html=1;aspect=fixed;" vertex="1" parent="1">
          <mxGeometry x="190" y="640" width="40" height="40" as="geometry" />
        </mxCell>
        <mxCell id="hbgop2AEXUlkO1LDF3io-74" value="" style="endArrow=none;html=1;rounded=0;" edge="1" parent="1">
          <mxGeometry width="50" height="50" relative="1" as="geometry">
            <mxPoint x="220" y="790" as="sourcePoint" />
            <mxPoint x="220" y="730" as="targetPoint" />
            <Array as="points">
              <mxPoint x="240" y="790" />
              <mxPoint x="240" y="730" />
            </Array>
          </mxGeometry>
        </mxCell>
        <mxCell id="hbgop2AEXUlkO1LDF3io-75" value="4" style="ellipse;whiteSpace=wrap;html=1;aspect=fixed;" vertex="1" parent="1">
          <mxGeometry x="270" y="820" width="40" height="40" as="geometry" />
        </mxCell>
        <mxCell id="hbgop2AEXUlkO1LDF3io-76" value="6" style="ellipse;whiteSpace=wrap;html=1;aspect=fixed;fillColor=#e1d5e7;strokeColor=#9673a6;" vertex="1" parent="1">
          <mxGeometry x="430" y="820" width="40" height="40" as="geometry" />
        </mxCell>
        <mxCell id="hbgop2AEXUlkO1LDF3io-77" value="" style="endArrow=none;html=1;rounded=0;" edge="1" parent="1">
          <mxGeometry width="50" height="50" relative="1" as="geometry">
            <mxPoint x="420" y="790" as="sourcePoint" />
            <mxPoint x="420" y="730" as="targetPoint" />
            <Array as="points">
              <mxPoint x="440" y="790" />
              <mxPoint x="440" y="730" />
            </Array>
          </mxGeometry>
        </mxCell>
        <mxCell id="hbgop2AEXUlkO1LDF3io-78" value="" style="endArrow=none;html=1;rounded=0;" edge="1" parent="1">
          <mxGeometry width="50" height="50" relative="1" as="geometry">
            <mxPoint x="400" y="790" as="sourcePoint" />
            <mxPoint x="400" y="730" as="targetPoint" />
            <Array as="points">
              <mxPoint x="380" y="790" />
              <mxPoint x="380" y="730" />
            </Array>
          </mxGeometry>
        </mxCell>
        <mxCell id="hbgop2AEXUlkO1LDF3io-79" value="6" style="ellipse;whiteSpace=wrap;html=1;aspect=fixed;" vertex="1" parent="1">
          <mxGeometry x="350" y="820" width="40" height="40" as="geometry" />
        </mxCell>
        <mxCell id="hbgop2AEXUlkO1LDF3io-80" value="7" style="ellipse;whiteSpace=wrap;html=1;aspect=fixed;fillColor=#d5e8d4;strokeColor=#82b366;" vertex="1" parent="1">
          <mxGeometry x="190" y="740" width="40" height="40" as="geometry" />
        </mxCell>
        <mxCell id="hbgop2AEXUlkO1LDF3io-81" value="" style="endArrow=none;html=1;rounded=0;" edge="1" parent="1">
          <mxGeometry width="50" height="50" relative="1" as="geometry">
            <mxPoint x="200" y="790" as="sourcePoint" />
            <mxPoint x="200" y="730" as="targetPoint" />
            <Array as="points">
              <mxPoint x="180" y="790" />
              <mxPoint x="180" y="730" />
            </Array>
          </mxGeometry>
        </mxCell>
        <mxCell id="hbgop2AEXUlkO1LDF3io-82" value="First&amp;nbsp;subarray" style="text;html=1;strokeColor=none;fillColor=none;align=center;verticalAlign=middle;whiteSpace=wrap;rounded=0;" vertex="1" parent="1">
          <mxGeometry x="80" y="745" width="80" height="30" as="geometry" />
        </mxCell>
        <mxCell id="hbgop2AEXUlkO1LDF3io-83" value="Second&amp;nbsp;subarray" style="text;html=1;strokeColor=none;fillColor=none;align=center;verticalAlign=middle;whiteSpace=wrap;rounded=0;" vertex="1" parent="1">
          <mxGeometry x="280" y="745" width="100" height="30" as="geometry" />
        </mxCell>
        <mxCell id="hbgop2AEXUlkO1LDF3io-84" value="" style="endArrow=none;html=1;rounded=0;" edge="1" parent="1">
          <mxGeometry width="50" height="50" relative="1" as="geometry">
            <mxPoint x="460" y="870" as="sourcePoint" />
            <mxPoint x="460" y="810" as="targetPoint" />
            <Array as="points">
              <mxPoint x="480" y="870" />
              <mxPoint x="480" y="810" />
            </Array>
          </mxGeometry>
        </mxCell>
        <mxCell id="hbgop2AEXUlkO1LDF3io-85" value="" style="endArrow=none;html=1;rounded=0;" edge="1" parent="1">
          <mxGeometry width="50" height="50" relative="1" as="geometry">
            <mxPoint x="200" y="870" as="sourcePoint" />
            <mxPoint x="200" y="810" as="targetPoint" />
            <Array as="points">
              <mxPoint x="180" y="870" />
              <mxPoint x="180" y="810" />
            </Array>
          </mxGeometry>
        </mxCell>
        <mxCell id="hbgop2AEXUlkO1LDF3io-86" value="Result array" style="text;html=1;strokeColor=none;fillColor=none;align=center;verticalAlign=middle;whiteSpace=wrap;rounded=0;" vertex="1" parent="1">
          <mxGeometry x="80" y="825" width="70" height="30" as="geometry" />
        </mxCell>
        <mxCell id="hbgop2AEXUlkO1LDF3io-87" value="1" style="ellipse;whiteSpace=wrap;html=1;aspect=fixed;" vertex="1" parent="1">
          <mxGeometry x="190" y="820" width="40" height="40" as="geometry" />
        </mxCell>
        <mxCell id="hbgop2AEXUlkO1LDF3io-88" value="" style="endArrow=none;html=1;rounded=0;" edge="1" parent="1">
          <mxGeometry width="50" height="50" relative="1" as="geometry">
            <mxPoint x="220" y="970" as="sourcePoint" />
            <mxPoint x="220" y="910" as="targetPoint" />
            <Array as="points">
              <mxPoint x="240" y="970" />
              <mxPoint x="240" y="910" />
            </Array>
          </mxGeometry>
        </mxCell>
        <mxCell id="hbgop2AEXUlkO1LDF3io-89" value="4" style="ellipse;whiteSpace=wrap;html=1;aspect=fixed;" vertex="1" parent="1">
          <mxGeometry x="270" y="1000" width="40" height="40" as="geometry" />
        </mxCell>
        <mxCell id="hbgop2AEXUlkO1LDF3io-90" value="6" style="ellipse;whiteSpace=wrap;html=1;aspect=fixed;" vertex="1" parent="1">
          <mxGeometry x="430" y="1000" width="40" height="40" as="geometry" />
        </mxCell>
        <mxCell id="hbgop2AEXUlkO1LDF3io-91" value="" style="endArrow=none;html=1;rounded=0;" edge="1" parent="1">
          <mxGeometry width="50" height="50" relative="1" as="geometry">
            <mxPoint x="420" y="970" as="sourcePoint" />
            <mxPoint x="420" y="910" as="targetPoint" />
            <Array as="points">
              <mxPoint x="440" y="970" />
              <mxPoint x="440" y="910" />
            </Array>
          </mxGeometry>
        </mxCell>
        <mxCell id="hbgop2AEXUlkO1LDF3io-92" value="" style="endArrow=none;html=1;rounded=0;" edge="1" parent="1">
          <mxGeometry width="50" height="50" relative="1" as="geometry">
            <mxPoint x="400" y="970" as="sourcePoint" />
            <mxPoint x="400" y="910" as="targetPoint" />
            <Array as="points">
              <mxPoint x="380" y="970" />
              <mxPoint x="380" y="910" />
            </Array>
          </mxGeometry>
        </mxCell>
        <mxCell id="hbgop2AEXUlkO1LDF3io-93" value="6" style="ellipse;whiteSpace=wrap;html=1;aspect=fixed;" vertex="1" parent="1">
          <mxGeometry x="350" y="1000" width="40" height="40" as="geometry" />
        </mxCell>
        <mxCell id="hbgop2AEXUlkO1LDF3io-94" value="7" style="ellipse;whiteSpace=wrap;html=1;aspect=fixed;fillColor=#e1d5e7;strokeColor=#9673a6;" vertex="1" parent="1">
          <mxGeometry x="510" y="1000" width="40" height="40" as="geometry" />
        </mxCell>
        <mxCell id="hbgop2AEXUlkO1LDF3io-95" value="" style="endArrow=none;html=1;rounded=0;" edge="1" parent="1">
          <mxGeometry width="50" height="50" relative="1" as="geometry">
            <mxPoint x="200" y="970" as="sourcePoint" />
            <mxPoint x="200" y="910" as="targetPoint" />
            <Array as="points">
              <mxPoint x="180" y="970" />
              <mxPoint x="180" y="910" />
            </Array>
          </mxGeometry>
        </mxCell>
        <mxCell id="hbgop2AEXUlkO1LDF3io-96" value="First&amp;nbsp;subarray" style="text;html=1;strokeColor=none;fillColor=none;align=center;verticalAlign=middle;whiteSpace=wrap;rounded=0;" vertex="1" parent="1">
          <mxGeometry x="80" y="925" width="80" height="30" as="geometry" />
        </mxCell>
        <mxCell id="hbgop2AEXUlkO1LDF3io-97" value="Second&amp;nbsp;subarray" style="text;html=1;strokeColor=none;fillColor=none;align=center;verticalAlign=middle;whiteSpace=wrap;rounded=0;" vertex="1" parent="1">
          <mxGeometry x="280" y="925" width="100" height="30" as="geometry" />
        </mxCell>
        <mxCell id="hbgop2AEXUlkO1LDF3io-98" value="" style="endArrow=none;html=1;rounded=0;" edge="1" parent="1">
          <mxGeometry width="50" height="50" relative="1" as="geometry">
            <mxPoint x="540" y="1050" as="sourcePoint" />
            <mxPoint x="540" y="990" as="targetPoint" />
            <Array as="points">
              <mxPoint x="560" y="1050" />
              <mxPoint x="560" y="990" />
            </Array>
          </mxGeometry>
        </mxCell>
        <mxCell id="hbgop2AEXUlkO1LDF3io-99" value="" style="endArrow=none;html=1;rounded=0;" edge="1" parent="1">
          <mxGeometry width="50" height="50" relative="1" as="geometry">
            <mxPoint x="200" y="1050" as="sourcePoint" />
            <mxPoint x="200" y="990" as="targetPoint" />
            <Array as="points">
              <mxPoint x="180" y="1050" />
              <mxPoint x="180" y="990" />
            </Array>
          </mxGeometry>
        </mxCell>
        <mxCell id="hbgop2AEXUlkO1LDF3io-100" value="Result array" style="text;html=1;strokeColor=none;fillColor=none;align=center;verticalAlign=middle;whiteSpace=wrap;rounded=0;" vertex="1" parent="1">
          <mxGeometry x="80" y="1005" width="70" height="30" as="geometry" />
        </mxCell>
        <mxCell id="hbgop2AEXUlkO1LDF3io-101" value="1" style="ellipse;whiteSpace=wrap;html=1;aspect=fixed;" vertex="1" parent="1">
          <mxGeometry x="190" y="1000" width="40" height="40" as="geometry" />
        </mxCell>
        <mxCell id="hbgop2AEXUlkO1LDF3io-102" value="1" style="text;html=1;strokeColor=none;fillColor=none;align=center;verticalAlign=middle;whiteSpace=wrap;rounded=0;strokeWidth=1;fontSize=20;" vertex="1" parent="1">
          <mxGeometry x="10" y="25" width="60" height="30" as="geometry" />
        </mxCell>
        <mxCell id="hbgop2AEXUlkO1LDF3io-103" value="2" style="text;html=1;strokeColor=none;fillColor=none;align=center;verticalAlign=middle;whiteSpace=wrap;rounded=0;strokeWidth=1;fontSize=20;" vertex="1" parent="1">
          <mxGeometry x="10" y="205" width="60" height="30" as="geometry" />
        </mxCell>
        <mxCell id="hbgop2AEXUlkO1LDF3io-104" value="3" style="text;html=1;strokeColor=none;fillColor=none;align=center;verticalAlign=middle;whiteSpace=wrap;rounded=0;strokeWidth=1;fontSize=20;" vertex="1" parent="1">
          <mxGeometry x="10" y="385" width="60" height="30" as="geometry" />
        </mxCell>
        <mxCell id="hbgop2AEXUlkO1LDF3io-105" value="4" style="text;html=1;strokeColor=none;fillColor=none;align=center;verticalAlign=middle;whiteSpace=wrap;rounded=0;strokeWidth=1;fontSize=20;" vertex="1" parent="1">
          <mxGeometry x="10" y="565" width="60" height="30" as="geometry" />
        </mxCell>
        <mxCell id="hbgop2AEXUlkO1LDF3io-106" value="5" style="text;html=1;strokeColor=none;fillColor=none;align=center;verticalAlign=middle;whiteSpace=wrap;rounded=0;strokeWidth=1;fontSize=20;" vertex="1" parent="1">
          <mxGeometry x="10" y="745" width="60" height="30" as="geometry" />
        </mxCell>
        <mxCell id="hbgop2AEXUlkO1LDF3io-107" value="6" style="text;html=1;strokeColor=none;fillColor=none;align=center;verticalAlign=middle;whiteSpace=wrap;rounded=0;strokeWidth=1;fontSize=20;" vertex="1" parent="1">
          <mxGeometry x="10" y="925" width="60" height="30" as="geometry" />
        </mxCell>
        <mxCell id="hbgop2AEXUlkO1LDF3io-108" value="" style="endArrow=none;html=1;rounded=0;" edge="1" parent="1">
          <mxGeometry width="50" height="50" relative="1" as="geometry">
            <mxPoint x="40" y="170" as="sourcePoint" />
            <mxPoint x="680" y="170" as="targetPoint" />
          </mxGeometry>
        </mxCell>
        <mxCell id="hbgop2AEXUlkO1LDF3io-109" value="" style="endArrow=none;html=1;rounded=0;" edge="1" parent="1">
          <mxGeometry width="50" height="50" relative="1" as="geometry">
            <mxPoint x="40" y="350" as="sourcePoint" />
            <mxPoint x="680" y="350" as="targetPoint" />
          </mxGeometry>
        </mxCell>
        <mxCell id="hbgop2AEXUlkO1LDF3io-110" value="" style="endArrow=none;html=1;rounded=0;" edge="1" parent="1">
          <mxGeometry width="50" height="50" relative="1" as="geometry">
            <mxPoint x="40" y="530" as="sourcePoint" />
            <mxPoint x="680" y="530" as="targetPoint" />
          </mxGeometry>
        </mxCell>
        <mxCell id="hbgop2AEXUlkO1LDF3io-111" value="" style="endArrow=none;html=1;rounded=0;" edge="1" parent="1">
          <mxGeometry width="50" height="50" relative="1" as="geometry">
            <mxPoint x="40" y="710" as="sourcePoint" />
            <mxPoint x="680" y="710" as="targetPoint" />
          </mxGeometry>
        </mxCell>
        <mxCell id="hbgop2AEXUlkO1LDF3io-112" value="" style="endArrow=none;html=1;rounded=0;" edge="1" parent="1">
          <mxGeometry width="50" height="50" relative="1" as="geometry">
            <mxPoint x="40" y="890" as="sourcePoint" />
            <mxPoint x="680" y="890" as="targetPoint" />
          </mxGeometry>
        </mxCell>
      </root>
    </mxGraphModel>
  </diagram>
</mxfile>
